<svg className="text-secondary-500" width="18" height="18" viewBox="0 0 18 18" fill="none" xmlns="http://www.w3.org/2000/svg">
<g clip-path="url(#clip0_959_2266)">
<path d="M3.38999 4.45049L1.04474 2.10599L2.10599 1.04474L16.9552 15.8947L15.894 16.9552L13.4115 14.4727C12.0924 15.3094 10.562 15.7525 8.99999 15.75C4.95599 15.75 1.59149 12.84 0.885742 8.99999C1.20826 7.25303 2.08696 5.65716 3.39074 4.45049H3.38999ZM11.0677 12.129L9.96974 11.031C9.54978 11.2319 9.07782 11.2976 8.61894 11.2191C8.16006 11.1405 7.73685 10.9215 7.40765 10.5923C7.07844 10.2631 6.85947 9.83992 6.7809 9.38104C6.70234 8.92216 6.76806 8.4502 6.96899 8.03024L5.87099 6.93224C5.39378 7.65336 5.18045 8.51724 5.26711 9.37761C5.35378 10.238 5.73513 11.0419 6.34658 11.6534C6.95803 12.2648 7.76201 12.6462 8.62238 12.7329C9.48274 12.8195 10.3466 12.6062 11.0677 12.129ZM5.98049 2.81999C6.91574 2.45249 7.93499 2.24999 8.99999 2.24999C13.044 2.24999 16.4085 5.15999 17.1142 8.99999C16.8844 10.2493 16.3679 11.4282 15.6052 12.444L12.7102 9.54899C12.7962 8.9697 12.7454 8.37832 12.5617 7.82223C12.378 7.26614 12.0667 6.7608 11.6525 6.34669C11.2384 5.93258 10.7331 5.62122 10.177 5.43754C9.62091 5.25387 9.02953 5.20299 8.45024 5.28899L5.98049 2.82074V2.81999Z" fill="#677487"/>
</g>
<defs>
<clipPath id="clip0_959_2266">
<rect width="18" height="18" fill="white"/>
</clipPath>
</defs>
</svg>
