<svg width="98" height="46" viewBox="0 0 98 46" fill="none" xmlns="http://www.w3.org/2000/svg">
<path d="M13.642 39.456C11.4633 39.456 9.52533 39 7.828 38.088C6.156 37.176 4.83867 35.922 3.876 34.326C2.91333 32.73 2.432 30.9187 2.432 28.892V10.69H7.6V28.626C7.6 29.7913 7.85333 30.8427 8.36 31.78C8.892 32.7173 9.614 33.452 10.526 33.984C11.438 34.4907 12.4767 34.744 13.642 34.744C14.8327 34.744 15.8713 34.4907 16.758 33.984C17.67 33.452 18.3793 32.7173 18.886 31.78C19.418 30.8427 19.684 29.7913 19.684 28.626V10.69H24.852V28.892C24.852 30.9187 24.3707 32.73 23.408 34.326C22.4453 35.922 21.1153 37.176 19.418 38.088C17.746 39 15.8207 39.456 13.642 39.456ZM29.2514 39V10.69H41.1834C43.0581 10.69 44.6541 11.0193 45.9714 11.678C47.3141 12.3113 48.3401 13.2233 49.0494 14.414C49.7841 15.5793 50.1514 16.998 50.1514 18.67C50.1514 19.962 49.7967 21.178 49.0874 22.318C48.4034 23.4327 47.3014 24.3573 45.7814 25.092V22.698C47.1747 23.23 48.2767 23.8887 49.0874 24.674C49.8981 25.4593 50.4681 26.3333 50.7974 27.296C51.1267 28.2587 51.2914 29.272 51.2914 30.336C51.2914 33.0467 50.3921 35.1747 48.5934 36.72C46.8201 38.24 44.3501 39 41.1834 39H29.2514ZM34.4194 34.44H41.7154C43.0581 34.44 44.1221 34.0727 44.9074 33.338C45.7181 32.578 46.1234 31.5773 46.1234 30.336C46.1234 29.0947 45.7181 28.094 44.9074 27.334C44.1221 26.574 43.0581 26.194 41.7154 26.194H34.4194V34.44ZM34.4194 21.672H41.4494C42.5134 21.672 43.3621 21.368 43.9954 20.76C44.6287 20.1267 44.9454 19.316 44.9454 18.328C44.9454 17.34 44.6287 16.5547 43.9954 15.972C43.3621 15.3893 42.5134 15.098 41.4494 15.098H34.4194V21.672ZM59.0386 39V15.25H51.7046V10.69H71.4646V15.25H64.2446V39H59.0386ZM81.4203 39L71.5403 10.69H77.1643L84.9163 34.136H83.8143L91.5663 10.69H97.1903L87.3483 39H81.4203Z" fill="#1B266E"/>
</svg>
