<svg width="21" height="20" viewBox="0 0 21 20" fill="none" xmlns="http://www.w3.org/2000/svg">
<g id="Group">
<path id="Vector" d="M4.66659 1.66663H16.3333C16.5543 1.66663 16.7662 1.75442 16.9225 1.9107C17.0788 2.06698 17.1666 2.27895 17.1666 2.49996V17.5C17.1666 17.721 17.0788 17.9329 16.9225 18.0892C16.7662 18.2455 16.5543 18.3333 16.3333 18.3333H4.66659C4.44557 18.3333 4.23361 18.2455 4.07733 18.0892C3.92105 17.9329 3.83325 17.721 3.83325 17.5V2.49996C3.83325 2.27895 3.92105 2.06698 4.07733 1.9107C4.23361 1.75442 4.44557 1.66663 4.66659 1.66663ZM7.99992 9.16663V6.66663L3.83325 9.99996L7.99992 13.3333V10.8333H12.9999V9.16663H7.99992Z" fill="#D92D20"/>
</g>
</svg>
